<?xml version="1.0" encoding="UTF-8"?>
<svg id="Camada_1" data-name="Camada 1" xmlns="http://www.w3.org/2000/svg" viewBox="0 0 951.69 134.19">
  <defs>
    <style>
      .cls-1 {
        fill: #173a67;
      }
    </style>
  </defs>
  <path class="cls-1" d="m562.37,1.86h-90.8c-5.55,0-10.06,4.51-10.06,10.06v111.31c.5,5.18,4.8,9.09,10.01,9.09h90.85c1.9,0,3.45-1.55,3.45-3.46v-20.28c0-1.9-1.55-3.45-3.45-3.45h-70.71v-24.93h40.21c1.41,0,2.66-.84,3.2-2.14l7.83-19,.07-.17c.12-.36.19-.74.19-1.12,0-1.9-1.55-3.45-3.45-3.45h-48.03v-25.26h70.71c1.9,0,3.45-1.55,3.45-3.46V5.32c-.02-1.91-1.57-3.46-3.47-3.46Z"/>
  <path class="cls-1" d="m669.71,108.58c0-1.9-1.55-3.45-3.46-3.45h-51.32V5.31c0-1.91-1.55-3.45-3.45-3.45h-23.25c-1.9,0-3.45,1.55-3.45,3.46v116.94c0,5.55,4.51,10.06,10.06,10.06h58.84c3.92,0,7.3-2.31,8.86-5.64l6.91-16.77c.17-.42.26-.87.26-1.33Z"/>
  <path class="cls-1" d="m241.7,127.03l-27.51-40.85c18.33-5.78,26.87-18.52,26.87-40.05,0-15.77-4.45-26.84-13.6-33.85-9.29-7.12-23.4-10.43-44.4-10.43h-47.75c-5.55,0-10.06,4.51-10.06,10.06v116.94c0,1.9,1.55,3.45,3.46,3.45h23.25c1.91,0,3.46-1.55,3.46-3.45v-38.45h19.97l7.51-.18,26.37,40.45.02.03c.64,1,1.73,1.6,2.92,1.6h26.57c1.91,0,3.46-1.55,3.46-3.45-.02-.64-.2-1.26-.54-1.82h0Zm-31.91-79.04c0,13.5-7.08,18.76-25.25,18.76h-29.14V29.24h29.14c18.18,0,25.25,5.25,25.25,18.75Z"/>
  <path class="cls-1" d="m951.11,126.96l-27.45-40.78c18.33-5.78,26.87-18.52,26.87-40.05,0-15.77-4.45-26.84-13.6-33.85-9.29-7.12-23.4-10.43-44.4-10.43h-47.75c-5.55,0-10.06,4.51-10.06,10.06v116.94c0,1.9,1.55,3.45,3.45,3.45h23.25c1.91,0,3.46-1.55,3.46-3.45v-38.45h19.97l7.51-.18,26.37,40.45.02.03c.64,1,1.73,1.6,2.92,1.6h26.57c1.9,0,3.45-1.55,3.45-3.45-.01-.69-.21-1.36-.58-1.89Zm-31.85-78.97c0,13.5-7.08,18.76-25.25,18.76h-29.14V29.24h29.14c18.17,0,25.25,5.25,25.25,18.75Z"/>
  <path class="cls-1" d="m285.83,1.5c-.43,0-.84.08-1.21.24h-.01l-19.75,8.14s-.01,0-.01,0c-3.52,1.48-6,4.96-6,9.02v110.33c0,1.9,1.55,3.45,3.45,3.45h23.25c1.9,0,3.45-1.55,3.45-3.45V4.7c.02-1.77-1.41-3.2-3.17-3.2Z"/>
  <path class="cls-1" d="m444.94,60.08s.02-.03.01-.05c-.02-.17-.04-.35-.06-.52v-.06l-.03-.3h0c-.03-.25-.05-.51-.08-.76h-59.17c-1.36,0-2.59.8-3.14,2.02l-6.21,15.06c-.16.41-.25.84-.25,1.28,0,1.91,1.55,3.46,3.46,3.46h32.38c-.08.23-.73,1.94-.94,2.44-5.91,14.06-19.44,23.04-35.11,23.04-.33,0-.66,0-.99,0-.56,0-1.11,0-1.67,0h-.21c-21.43,0-38.23-16.96-38.23-38.61,0-11.58,3.96-21.04,11.76-28.12,7.98-7.42,17.24-11.03,28.33-11.03,9.68-.13,18.53,2.58,26.36,8.12.69.51,1.4,1.08,2.28,1.81.62.53,1.42.82,2.24.82h28.68c1.91,0,3.45-1.55,3.45-3.45,0-.52-.12-1.03-.36-1.53-3.31-5.54-7.5-10.59-12.43-15.01-1.79-1.56-3.55-3.06-5.45-4.44C406.74,4.97,391.68.17,374.79,0c-.39,0-.79,0-1.18,0-18.54,0-35.89,6.41-48.88,18.05-13.73,12.32-21.3,29.73-21.3,49.03-.43,16.77,6.24,33.09,18.78,45.96,13.1,13.44,31,21.15,49.11,21.15.54,0,1.07-.01,1.6-.02.35,0,.7-.01,1.05-.02h.39s.51,0,.51,0c.31.01.62.02.92.02h.01c.54.01,1.08.02,1.61.02h0c18.11,0,36-7.71,49.1-21.15,12.54-12.87,19.22-29.19,18.78-45.96-.01-2.35-.13-4.7-.35-7Z"/>
  <path class="cls-1" d="m818.71,127.48v-.02s-48.76-119.73-48.76-119.73c-1.65-3.57-5.23-5.87-9.15-5.87h-25.88c-3.91,0-7.5,2.3-9.15,5.87l-48.75,119.73v.02c-.2.44-.3.9-.3,1.38,0,1.9,1.55,3.45,3.45,3.45h28.46c1.44,0,2.73-.9,3.24-2.24l9.75-24.95h52.44l9.75,24.95c.5,1.34,1.8,2.24,3.24,2.24h28.46c1.9,0,3.45-1.55,3.45-3.45.03-.48-.06-.95-.25-1.38Zm-88.24-46.02h-.96l18.36-45.54,18.36,45.54h-35.76Z"/>
  <g>
    <path class="cls-1" d="m115.22,5.07c0-1.77-1.43-3.19-3.19-3.21H27.17C12.17,1.86,0,14.02,0,29.02v.03H0v29.82H0v3.54H0c0,.08.06.14.14.14.07,0,.13-.05.14-.11v-.03c.3-2.38.85-4.69,1.61-6.9,0,0,.03-.1.05-.14,4.76-13.62,17.71-23.39,32.95-23.39h64.02c4.1,0,7.61-2.51,9.09-6.07l6.97-19.62h0c.15-.38.24-.79.24-1.22Z"/>
    <path class="cls-1" d="m83.61,58.38H30.16v-18.32C13.14,42.38,0,56.94,0,74.6v54.27c0,1.9,1.55,3.45,3.45,3.45h23.25c1.9,0,3.46-1.55,3.46-3.45v-44.59h45.63c1.39,0,2.64-.83,3.18-2.11l7.83-18.99c.18-.43.27-.88.27-1.35,0-1.9-1.56-3.45-3.46-3.45Z"/>
  </g>
</svg>